<?xml version="1.0" encoding="utf-8"?>
<svg width="1080" height="250" viewBox="0 0 108 25" fill="none" xmlns="http://www.w3.org/2000/svg">
<path d="M46.3779 21.2545C46.1518 21.2545 46.0031 21.106 46.0031 20.8802V7.37747H42.9217V24.0296H54.2631V21.2552H46.3787L46.3779 21.2545Z" fill="#DF1B12"/>
<path d="M70.4924 21.2544H61.5503C61.3242 21.2544 61.1755 21.1059 61.1755 20.8802V16.9058H67.9346V14.1314H61.1755V10.6078C61.1755 10.3821 61.3242 10.2335 61.5503 10.2335H69.9635V7.4592H65.3821L68.2381 3.85907C66.3586 3.85907 65.0846 3.85907 64.9306 3.85907C64.9306 3.85907 63.3539 5.80764 62.152 7.23344C62.0754 7.30994 62.0033 7.4592 61.7771 7.4592H58.0949V24.1113H70.4886V21.2552L70.4924 21.2544Z" fill="#DF1B12"/>
<path d="M86.3431 18.6285C86.4197 18.705 86.4197 18.777 86.4918 18.705C86.4918 18.705 86.4918 18.6285 86.4918 18.5564C86.4918 18.5564 86.4918 10.6797 86.4918 7.38179H89.5731V24.0286H86.8711C86.645 24.0286 86.4189 23.8801 86.2702 23.7309L78.0012 12.7767C77.9246 12.7002 77.9246 12.6282 77.8525 12.7002C77.8525 12.7002 77.8525 12.7767 77.8525 12.8487V24.0286H74.7711V7.37654C74.7711 7.37654 77.3236 7.37654 77.5497 7.37654C77.7758 7.37654 77.9246 7.52505 77.9246 7.52505L86.3423 18.6277L86.3431 18.6285Z" fill="#DF1B12"/>
<path d="M34.7338 13.6799C34.7338 13.9057 34.5851 14.0542 34.359 14.0542H26.6233C26.3972 14.0542 26.2485 13.9057 26.2485 13.6799V7.37747H23.1671V24.0296H26.2485V17.2036C26.2485 16.9778 26.3972 16.8293 26.6233 16.8293H34.4356C34.6617 16.8293 34.8105 16.9778 34.8105 17.2036V24.0296H37.8918V7.37747H34.8105L34.7338 13.6799Z" fill="#DF1B12"/>
<path d="M7.54256 16.9777L9.94635 11.7261C9.94635 11.7261 10.0951 11.3518 10.3212 11.3518C10.6194 11.3518 10.696 11.7261 10.696 11.7261L13.1764 16.9777H7.54181H7.54256ZM12.2006 6.62812C11.7484 7.07964 11.0754 7.37665 10.3978 7.37665C8.96981 7.37665 7.84529 6.25311 7.84529 4.82806C7.84529 4.15154 8.14351 3.47951 8.59497 3.02799C9.04643 2.57648 9.72024 2.27947 10.3978 2.27947C11.0754 2.27947 11.7484 2.58173 12.2006 3.02799C12.6529 3.47426 12.9503 4.15154 12.9503 4.82806C12.9503 5.50458 12.6476 6.17661 12.2006 6.62812ZM0.706055 24.0288H4.23511L5.81184 20.5771C5.81184 20.5771 6.03794 20.0536 6.26405 19.9006C6.49016 19.7476 6.94162 19.7521 6.94162 19.7521H13.552C13.552 19.7521 14.0763 19.6756 14.3017 19.9006C14.5999 20.1264 14.7539 20.5771 14.7539 20.5771L16.408 24.0288H19.9371L12.7257 8.72595C13.0239 8.57745 13.25 8.35169 13.5528 8.04943C14.4519 7.15689 14.9034 6.02885 14.9034 4.82881C14.9034 2.28022 12.8745 0.254395 10.3219 0.254395C9.12004 0.254395 7.91815 0.705911 7.0911 1.60294C6.18743 2.50523 5.74048 3.62877 5.74048 4.82881C5.74048 6.02885 6.19269 7.2289 7.0911 8.05468C7.31721 8.28043 7.61543 8.50619 7.91815 8.6547L0.706806 24.0295L0.706055 24.0288Z" fill="#DF1B12"/>
<path d="M100.689 24.2544C97.3096 24.2544 94.7563 22.9778 93.2517 21.4028L95.1311 19.2285C96.5591 20.577 98.4341 21.4028 100.54 21.4028C101.968 21.4028 103.843 21.0285 103.843 19.305C103.843 17.7307 102.04 17.5049 100.386 17.1306C99.3325 16.9049 94.078 16.0791 94.078 12.1047C94.078 8.80684 97.3809 7.07878 100.612 7.07878C102.641 7.07878 105.193 7.6023 106.77 8.95534L105.342 11.2789C103.991 10.2274 101.885 9.85313 100.683 9.85313C99.7073 9.85313 97.5297 10.3046 97.5297 11.8017C97.5297 13.2275 99.4091 13.8275 101.361 14.1253C106.02 14.9511 107.294 16.8996 107.294 19.1512C107.222 22.5308 104.217 24.2536 100.688 24.2536L100.689 24.2544Z" fill="#DF1B12"/>
</svg>
